<?xml version="1.0" encoding="utf-8"?>
<!-- Generator: Adobe Illustrator 18.0.0, SVG Export Plug-In . SVG Version: 6.00 Build 0)  -->
<!DOCTYPE svg PUBLIC "-//W3C//DTD SVG 1.1//EN" "http://www.w3.org/Graphics/SVG/1.1/DTD/svg11.dtd">
<svg version="1.1" id="Layer_1" xmlns="http://www.w3.org/2000/svg" xmlns:xlink="http://www.w3.org/1999/xlink" x="0px" y="0px"
	 viewBox="0 0 329.3 303.5" enable-background="new 0 0 329.3 303.5" xml:space="preserve">
<g>
	<path fill="#FFFFFF" d="M181.4,95.7c2.9,1.8,6.4,2.8,10.1,2.8c10.6,0,19.2-8.6,19.2-19.2c0-10.6-8.6-19.2-19.2-19.2
		c-17,0-33,13.3-33,32.6c0,25.8,17.7,33.4,20.9,42.6c3.2,9.2-2.7,18.1-14.7,18.1c-12.1,0-15.2-13-12.8-17.4c2.2-3.5,3.5-7.6,3.5-12
		c0-12.3-9.9-22.2-22.2-22.2c-5.3,0-10.1,1.8-13.9,4.9l0,0c0,0,0,0,0,0c-0.4,0.4-0.9,0.7-1.3,1.1c-7.8,7.2-11.2,18.9-11.2,26.3
		c0,22,13.2,53.3,59.2,53.3c30.8,0,49.9-23.3,49.9-41.3C215.8,113,176.8,102.6,181.4,95.7z"/>
	
		<ellipse transform="matrix(0.2208 -0.9753 0.9753 0.2208 129.7334 241.1738)" fill="#FFFFFF" cx="215.8" cy="39.4" rx="16.6" ry="13.3"/>
	<ellipse fill="#FFFFFF" cx="169.6" cy="26" rx="19.3" ry="25.5"/>
	
		<ellipse transform="matrix(0.1982 0.9802 -0.9802 0.1982 136.5325 -81.4323)" fill="#FFFFFF" cx="118" cy="42.7" rx="27.9" ry="20.8"/>
	
		<ellipse transform="matrix(-0.3743 -0.9273 0.9273 -0.3743 35.7037 194.1076)" fill="#FFFFFF" cx="83.3" cy="85" rx="19.8" ry="14"/>
</g>
<g>
	<path fill="#FFFFFF" d="M52,253.1c1.4,0.9,3.8,1.9,6.2,1.9c3.4,0,5-1.7,5-3.8c0-2.2-1.3-3.5-4.8-4.7c-4.6-1.6-6.8-4.2-6.8-7.3
		c0-4.2,3.4-7.6,8.9-7.6c2.6,0,4.9,0.7,6.3,1.6l-1.2,3.4c-1-0.6-2.9-1.5-5.3-1.5c-2.8,0-4.3,1.6-4.3,3.5c0,2.1,1.5,3.1,4.9,4.4
		c4.5,1.7,6.8,3.9,6.8,7.8c0,4.5-3.5,7.7-9.6,7.7c-2.8,0-5.4-0.7-7.2-1.8L52,253.1z"/>
	<path fill="#FFFFFF" d="M92.1,257c-1.2,0.6-3.9,1.5-7.4,1.5c-7.8,0-12.8-5.3-12.8-13.1c0-7.9,5.4-13.7,13.8-13.7
		c2.8,0,5.2,0.7,6.5,1.3l-1.1,3.6c-1.1-0.6-2.9-1.2-5.4-1.2c-5.9,0-9.1,4.4-9.1,9.7c0,6,3.8,9.6,8.9,9.6c2.7,0,4.4-0.7,5.7-1.3
		L92.1,257z"/>
	<path fill="#FFFFFF" d="M97.6,220.1h4.7v16.1h0.1c0.7-1.3,1.9-2.5,3.4-3.3c1.4-0.8,3-1.3,4.8-1.3c3.5,0,9,2.1,9,11v15.3h-4.7v-14.8
		c0-4.2-1.5-7.7-6-7.7c-3,0-5.4,2.1-6.3,4.7c-0.3,0.6-0.3,1.3-0.3,2.2v15.5h-4.7V220.1z"/>
	<path fill="#FFFFFF" d="M127.1,239.1c0-2.7-0.1-4.8-0.2-7h4.1l0.2,4.2h0.2c1.4-2.4,3.8-4.7,8.1-4.7c3.5,0,6.2,2.1,7.3,5.2h0.1
		c0.8-1.4,1.8-2.6,2.9-3.4c1.5-1.2,3.2-1.8,5.7-1.8c3.4,0,8.5,2.2,8.5,11.2v15.2h-4.6v-14.6c0-5-1.8-7.9-5.6-7.9
		c-2.7,0-4.7,2-5.5,4.3c-0.2,0.6-0.4,1.5-0.4,2.3v15.9h-4.6v-15.4c0-4.1-1.8-7.1-5.4-7.1c-2.9,0-5.1,2.3-5.8,4.7
		c-0.3,0.7-0.4,1.5-0.4,2.3v15.5h-4.6V239.1z"/>
	<path fill="#FFFFFF" d="M174.1,245.9c0.1,6.3,4.2,8.9,8.8,8.9c3.4,0,5.4-0.6,7.1-1.3l0.8,3.4c-1.6,0.7-4.5,1.6-8.6,1.6
		c-7.9,0-12.7-5.2-12.7-13c0-7.8,4.6-13.9,12.1-13.9c8.4,0,10.6,7.4,10.6,12.1c0,1-0.1,1.7-0.2,2.2H174.1z M187.8,242.6
		c0.1-3-1.2-7.6-6.5-7.6c-4.7,0-6.8,4.4-7.2,7.6H187.8z"/>
	<path fill="#FFFFFF" d="M203.4,224.9c0.1,1.6-1.1,2.9-3,2.9c-1.6,0-2.8-1.3-2.8-2.9c0-1.7,1.2-2.9,2.9-2.9
		C202.3,222,203.4,223.3,203.4,224.9z M198.2,257.9v-25.8h4.7v25.8H198.2z"/>
	<path fill="#FFFFFF" d="M232.8,232.2c-0.1,1.9-0.2,3.9-0.2,7.1v15c0,5.9-1.2,9.5-3.7,11.8c-2.5,2.3-6.1,3.1-9.4,3.1
		c-3.1,0-6.5-0.7-8.6-2.1l1.2-3.6c1.7,1.1,4.4,2,7.6,2c4.8,0,8.3-2.5,8.3-9v-2.9h-0.1c-1.4,2.4-4.2,4.3-8.2,4.3
		c-6.4,0-11-5.4-11-12.6c0-8.7,5.7-13.7,11.6-13.7c4.5,0,6.9,2.3,8,4.5h0.1l0.2-3.9H232.8z M228,242.3c0-0.8-0.1-1.5-0.3-2.1
		c-0.9-2.7-3.1-4.9-6.5-4.9c-4.5,0-7.7,3.8-7.7,9.7c0,5.1,2.6,9.3,7.6,9.3c2.9,0,5.5-1.8,6.5-4.8c0.3-0.8,0.4-1.7,0.4-2.5V242.3z"/>
	<path fill="#FFFFFF" d="M243,245.9c0.1,6.3,4.2,8.9,8.8,8.9c3.4,0,5.4-0.6,7.1-1.3l0.8,3.4c-1.6,0.7-4.5,1.6-8.6,1.6
		c-7.9,0-12.7-5.2-12.7-13c0-7.8,4.6-13.9,12.1-13.9c8.4,0,10.6,7.4,10.6,12.1c0,1-0.1,1.7-0.2,2.2H243z M256.7,242.6
		c0.1-3-1.2-7.6-6.5-7.6c-4.7,0-6.8,4.4-7.2,7.6H256.7z"/>
	<path fill="#FFFFFF" d="M267,240.2c0-3-0.1-5.6-0.2-8h4.1l0.2,5.1h0.2c1.2-3.5,4-5.6,7.1-5.6c0.5,0,0.9,0.1,1.3,0.2v4.4
		c-0.5-0.1-1-0.2-1.6-0.2c-3.3,0-5.6,2.5-6.3,6c-0.1,0.6-0.2,1.4-0.2,2.2v13.7H267V240.2z"/>
</g>
<g>
	<path fill="#FFFFFF" d="M53.1,277.2l2.1,7h0l2.3-7h1.2l2.3,7h0l2-7h1.3l-2.7,8.6h-1.4l-2.3-6.9h0l-2.3,6.9h-1.4l-2.7-8.6H53.1z"/>
	<path fill="#FFFFFF" d="M74.4,281.2c0,0.1,0,0.2,0,0.3c0,0.1,0,0.2,0,0.3h-7.1c0,0.4,0.1,0.8,0.3,1.2c0.2,0.4,0.4,0.7,0.7,1
		c0.3,0.3,0.6,0.5,1,0.7c0.4,0.2,0.8,0.2,1.2,0.2c0.6,0,1.2-0.1,1.7-0.4c0.5-0.3,0.8-0.6,1.1-1l0.9,0.7c-0.5,0.6-1.1,1.1-1.7,1.4
		c-0.6,0.3-1.3,0.4-2,0.4c-0.6,0-1.2-0.1-1.8-0.3c-0.5-0.2-1-0.5-1.4-0.9c-0.4-0.4-0.7-0.9-0.9-1.4c-0.2-0.5-0.3-1.1-0.3-1.8
		c0-0.6,0.1-1.2,0.3-1.8c0.2-0.5,0.5-1,0.9-1.4c0.4-0.4,0.8-0.7,1.4-0.9c0.5-0.2,1.1-0.3,1.7-0.3c0.7,0,1.3,0.1,1.8,0.3
		c0.5,0.2,0.9,0.5,1.3,0.9c0.3,0.4,0.6,0.8,0.8,1.3C74.3,280.1,74.4,280.6,74.4,281.2z M73.1,280.8c0-0.8-0.3-1.5-0.8-2
		c-0.5-0.5-1.2-0.8-2.1-0.8c-0.4,0-0.8,0.1-1.2,0.2c-0.4,0.2-0.7,0.4-0.9,0.6c-0.3,0.3-0.5,0.6-0.6,0.9c-0.2,0.3-0.3,0.7-0.3,1.1
		H73.1z"/>
	<path fill="#FFFFFF" d="M78.3,284.3v1.4h-1.2v-13.8h1.2v6.8h0c0.4-0.6,0.8-1,1.4-1.3c0.6-0.3,1.2-0.4,1.8-0.4
		c0.7,0,1.3,0.1,1.8,0.3c0.5,0.2,1,0.5,1.4,1c0.4,0.4,0.7,0.9,0.9,1.4c0.2,0.5,0.3,1.1,0.3,1.8c0,0.6-0.1,1.2-0.3,1.8
		c-0.2,0.5-0.5,1-0.9,1.4c-0.4,0.4-0.8,0.7-1.4,1c-0.5,0.2-1.1,0.3-1.8,0.3c-0.6,0-1.2-0.1-1.8-0.4
		C79.2,285.3,78.7,284.9,78.3,284.3L78.3,284.3z M84.7,281.5c0-0.5-0.1-0.9-0.2-1.3c-0.1-0.4-0.4-0.8-0.6-1.1
		c-0.3-0.3-0.6-0.6-1-0.7c-0.4-0.2-0.9-0.3-1.4-0.3c-0.5,0-0.9,0.1-1.3,0.3c-0.4,0.2-0.8,0.4-1,0.7c-0.3,0.3-0.5,0.7-0.7,1.1
		c-0.2,0.4-0.2,0.9-0.2,1.4c0,0.5,0.1,0.9,0.2,1.4c0.2,0.4,0.4,0.8,0.7,1.1c0.3,0.3,0.6,0.5,1,0.7c0.4,0.2,0.8,0.3,1.3,0.3
		c0.5,0,1-0.1,1.4-0.3c0.4-0.2,0.7-0.4,1-0.7c0.3-0.3,0.5-0.7,0.6-1.1C84.6,282.4,84.7,282,84.7,281.5z"/>
	<path fill="#FFFFFF" d="M95.7,284.3c-0.4,0.5-0.8,1-1.4,1.2c-0.6,0.3-1.2,0.4-1.8,0.4c-0.7,0-1.3-0.1-1.8-0.3c-0.5-0.2-1-0.5-1.4-1
		c-0.4-0.4-0.7-0.9-0.9-1.4c-0.2-0.5-0.3-1.1-0.3-1.8c0-0.6,0.1-1.2,0.3-1.8c0.2-0.5,0.5-1,0.9-1.4c0.4-0.4,0.8-0.7,1.4-1
		c0.5-0.2,1.1-0.3,1.8-0.3c0.6,0,1.2,0.1,1.8,0.4c0.6,0.3,1.1,0.7,1.4,1.3h0v-6.8H97v13.8h-1.2L95.7,284.3L95.7,284.3z M89.4,281.5
		c0,0.5,0.1,0.9,0.2,1.3c0.1,0.4,0.4,0.8,0.6,1.1c0.3,0.3,0.6,0.6,1,0.7c0.4,0.2,0.9,0.3,1.4,0.3c0.5,0,0.9-0.1,1.3-0.3
		c0.4-0.2,0.8-0.4,1-0.7c0.3-0.3,0.5-0.7,0.7-1.1c0.2-0.4,0.2-0.9,0.2-1.4c0-0.5-0.1-0.9-0.2-1.4c-0.2-0.4-0.4-0.8-0.7-1.1
		c-0.3-0.3-0.6-0.6-1-0.7c-0.4-0.2-0.8-0.3-1.3-0.3c-0.5,0-1,0.1-1.4,0.3c-0.4,0.2-0.7,0.4-1,0.7c-0.3,0.3-0.5,0.7-0.6,1.1
		C89.5,280.6,89.4,281,89.4,281.5z"/>
	<path fill="#FFFFFF" d="M108.1,281.2c0,0.1,0,0.2,0,0.3c0,0.1,0,0.2,0,0.3H101c0,0.4,0.1,0.8,0.3,1.2c0.2,0.4,0.4,0.7,0.7,1
		c0.3,0.3,0.6,0.5,1,0.7c0.4,0.2,0.8,0.2,1.2,0.2c0.6,0,1.2-0.1,1.7-0.4c0.5-0.3,0.8-0.6,1.1-1l0.9,0.7c-0.5,0.6-1.1,1.1-1.7,1.4
		c-0.6,0.3-1.3,0.4-2,0.4c-0.6,0-1.2-0.1-1.8-0.3c-0.5-0.2-1-0.5-1.4-0.9c-0.4-0.4-0.7-0.9-0.9-1.4c-0.2-0.5-0.3-1.1-0.3-1.8
		c0-0.6,0.1-1.2,0.3-1.8c0.2-0.5,0.5-1,0.9-1.4c0.4-0.4,0.8-0.7,1.4-0.9c0.5-0.2,1.1-0.3,1.7-0.3c0.7,0,1.3,0.1,1.8,0.3
		c0.5,0.2,0.9,0.5,1.3,0.9c0.3,0.4,0.6,0.8,0.8,1.3C108,280.1,108.1,280.6,108.1,281.2z M106.9,280.8c0-0.8-0.3-1.5-0.8-2
		c-0.5-0.5-1.2-0.8-2.1-0.8c-0.4,0-0.8,0.1-1.2,0.2c-0.4,0.2-0.7,0.4-0.9,0.6c-0.3,0.3-0.5,0.6-0.6,0.9c-0.2,0.3-0.2,0.7-0.3,1.1
		H106.9z"/>
	<path fill="#FFFFFF" d="M115.4,279.2c-0.2-0.4-0.5-0.6-0.8-0.9c-0.4-0.2-0.8-0.3-1.3-0.3c-0.2,0-0.4,0-0.7,0.1
		c-0.2,0-0.4,0.1-0.6,0.2c-0.2,0.1-0.3,0.2-0.4,0.4c-0.1,0.2-0.2,0.4-0.2,0.6c0,0.4,0.2,0.7,0.5,0.9c0.3,0.2,0.8,0.4,1.6,0.5
		c1,0.2,1.8,0.5,2.2,0.9c0.5,0.4,0.7,0.9,0.7,1.6c0,0.5-0.1,0.9-0.3,1.2c-0.2,0.3-0.4,0.6-0.7,0.8c-0.3,0.2-0.6,0.4-1,0.5
		c-0.4,0.1-0.8,0.1-1.2,0.1c-0.6,0-1.3-0.1-1.9-0.4c-0.6-0.3-1.1-0.7-1.5-1.3l1-0.7c0.2,0.4,0.5,0.7,1,1c0.4,0.3,0.9,0.4,1.4,0.4
		c0.3,0,0.5,0,0.8-0.1c0.2,0,0.5-0.1,0.6-0.3c0.2-0.1,0.3-0.3,0.4-0.5c0.1-0.2,0.2-0.4,0.2-0.7c0-0.5-0.2-0.8-0.6-1
		c-0.4-0.2-1.1-0.4-1.9-0.6c-0.3-0.1-0.5-0.1-0.8-0.2c-0.3-0.1-0.6-0.2-0.8-0.4c-0.2-0.2-0.4-0.4-0.6-0.7c-0.2-0.3-0.2-0.6-0.2-1
		c0-0.4,0.1-0.8,0.3-1.1c0.2-0.3,0.4-0.6,0.7-0.8c0.3-0.2,0.6-0.4,1-0.4c0.4-0.1,0.7-0.1,1.1-0.1c0.6,0,1.2,0.1,1.7,0.4
		c0.6,0.3,1,0.6,1.3,1.1L115.4,279.2z"/>
	<path fill="#FFFFFF" d="M120.4,273.9c0,0.3-0.1,0.5-0.3,0.6c-0.2,0.2-0.4,0.2-0.6,0.2c-0.2,0-0.4-0.1-0.6-0.2
		c-0.2-0.2-0.3-0.4-0.3-0.6c0-0.3,0.1-0.5,0.3-0.6c0.2-0.2,0.4-0.2,0.6-0.2c0.2,0,0.4,0.1,0.6,0.2
		C120.4,273.4,120.4,273.6,120.4,273.9z M120.2,285.8h-1.2v-8.6h1.2V285.8z"/>
	<path fill="#FFFFFF" d="M124,287.5c0.3,0.4,0.8,0.8,1.4,1.1c0.6,0.3,1.2,0.5,1.9,0.5c0.6,0,1.1-0.1,1.6-0.3c0.4-0.2,0.8-0.4,1-0.7
		c0.3-0.3,0.5-0.7,0.6-1.1c0.1-0.4,0.2-0.8,0.2-1.3v-1.6h0c-0.3,0.5-0.8,1-1.4,1.2c-0.6,0.3-1.2,0.4-1.8,0.4c-0.7,0-1.3-0.1-1.8-0.3
		c-0.5-0.2-1-0.5-1.4-0.9c-0.4-0.4-0.7-0.8-0.9-1.4c-0.2-0.5-0.3-1.1-0.3-1.7c0-0.6,0.1-1.2,0.3-1.7c0.2-0.5,0.5-1,0.9-1.4
		c0.4-0.4,0.8-0.7,1.4-1c0.5-0.2,1.1-0.3,1.8-0.3c0.6,0,1.2,0.1,1.8,0.4c0.6,0.3,1.1,0.7,1.4,1.3h0v-1.5h1.2v8.5
		c0,0.5-0.1,1-0.2,1.5c-0.1,0.5-0.4,1-0.7,1.4c-0.3,0.4-0.8,0.8-1.4,1.1c-0.6,0.3-1.4,0.4-2.3,0.4c-0.8,0-1.5-0.2-2.3-0.5
		c-0.7-0.3-1.3-0.7-1.8-1.3L124,287.5z M124.2,281.4c0,0.5,0.1,0.9,0.2,1.3c0.1,0.4,0.4,0.8,0.6,1.1c0.3,0.3,0.6,0.5,1,0.7
		c0.4,0.2,0.9,0.3,1.4,0.3c0.5,0,0.9-0.1,1.3-0.2c0.4-0.2,0.8-0.4,1-0.7c0.3-0.3,0.5-0.6,0.7-1.1c0.2-0.4,0.2-0.9,0.2-1.4
		c0-0.5-0.1-0.9-0.2-1.3c-0.2-0.4-0.4-0.8-0.7-1.1c-0.3-0.3-0.6-0.5-1-0.7c-0.4-0.2-0.8-0.3-1.3-0.3c-0.5,0-1,0.1-1.4,0.3
		c-0.4,0.2-0.7,0.4-1,0.7c-0.3,0.3-0.5,0.7-0.6,1.1C124.3,280.5,124.2,280.9,124.2,281.4z"/>
	<path fill="#FFFFFF" d="M136.2,277.2c0,0.2,0,0.5,0.1,0.8c0,0.3,0,0.5,0,0.7h0c0.2-0.5,0.6-0.9,1.2-1.2c0.5-0.3,1.1-0.5,1.7-0.5
		c1.1,0,1.9,0.3,2.4,1c0.5,0.6,0.8,1.5,0.8,2.6v5.3h-1.2V281c0-0.5,0-0.9-0.1-1.2c-0.1-0.4-0.2-0.7-0.4-0.9
		c-0.2-0.3-0.4-0.5-0.7-0.6c-0.3-0.1-0.7-0.2-1.1-0.2c-0.3,0-0.6,0.1-1,0.2c-0.3,0.1-0.6,0.3-0.8,0.6c-0.2,0.3-0.4,0.6-0.6,1
		c-0.1,0.4-0.2,0.9-0.2,1.5v4.4h-1.2v-6.7c0-0.2,0-0.5,0-0.9c0-0.4,0-0.7-0.1-1H136.2z"/>
	<path fill="#FFFFFF" d="M158.3,282.8l2.9,3h-1.8l-1.8-1.9c-0.5,0.7-1.1,1.3-1.7,1.6c-0.6,0.3-1.4,0.5-2.3,0.5
		c-0.5,0-1.1-0.1-1.6-0.2c-0.5-0.2-0.9-0.4-1.3-0.7c-0.4-0.3-0.7-0.7-0.9-1.1c-0.2-0.4-0.3-1-0.3-1.5c0-0.5,0.1-0.9,0.2-1.3
		c0.2-0.4,0.4-0.7,0.6-1.1c0.3-0.3,0.6-0.6,1-0.8c0.4-0.2,0.8-0.5,1.2-0.6c-0.2-0.2-0.4-0.4-0.6-0.6c-0.2-0.2-0.4-0.5-0.5-0.7
		s-0.3-0.5-0.4-0.8c-0.1-0.3-0.1-0.6-0.1-0.9c0-0.5,0.1-0.9,0.3-1.3c0.2-0.4,0.4-0.7,0.7-1c0.3-0.3,0.6-0.5,1-0.6
		c0.4-0.1,0.8-0.2,1.2-0.2c0.4,0,0.8,0.1,1.2,0.2c0.4,0.1,0.7,0.3,1,0.6c0.3,0.3,0.5,0.6,0.7,0.9c0.2,0.4,0.2,0.8,0.2,1.2
		c0,0.4-0.1,0.8-0.2,1.2c-0.2,0.3-0.4,0.6-0.7,0.9c-0.3,0.3-0.6,0.5-0.9,0.7c-0.3,0.2-0.7,0.4-1.1,0.6l3,3.1l1.8-3.1h1.5
		L158.3,282.8z M153.3,279.4c-0.8,0.4-1.4,0.8-1.8,1.3c-0.4,0.5-0.6,1.1-0.6,1.8c0,0.4,0.1,0.7,0.2,1c0.1,0.3,0.3,0.6,0.6,0.8
		c0.2,0.2,0.5,0.4,0.9,0.5c0.3,0.1,0.7,0.2,1,0.2c0.7,0,1.3-0.2,1.8-0.5c0.5-0.3,0.9-0.8,1.3-1.4L153.3,279.4z M156,275.4
		c0-0.5-0.2-1-0.5-1.3c-0.3-0.3-0.8-0.5-1.3-0.5c-0.6,0-1,0.2-1.4,0.5c-0.4,0.4-0.5,0.8-0.5,1.5c0,0.2,0,0.5,0.1,0.7
		c0.1,0.2,0.2,0.5,0.4,0.7c0.1,0.2,0.3,0.4,0.5,0.6c0.2,0.2,0.3,0.3,0.4,0.4c0.3-0.1,0.6-0.3,0.9-0.4c0.3-0.2,0.5-0.4,0.8-0.6
		c0.2-0.2,0.4-0.4,0.5-0.7C155.9,276,156,275.7,156,275.4z"/>
	<path fill="#FFFFFF" d="M174.8,284.3c-0.4,0.5-0.8,1-1.4,1.2c-0.6,0.3-1.2,0.4-1.8,0.4c-0.7,0-1.3-0.1-1.8-0.3
		c-0.5-0.2-1-0.5-1.4-1c-0.4-0.4-0.7-0.9-0.9-1.4c-0.2-0.5-0.3-1.1-0.3-1.8c0-0.6,0.1-1.2,0.3-1.8c0.2-0.5,0.5-1,0.9-1.4
		c0.4-0.4,0.8-0.7,1.4-1c0.5-0.2,1.1-0.3,1.8-0.3c0.6,0,1.2,0.1,1.8,0.4c0.6,0.3,1.1,0.7,1.4,1.3h0v-6.8h1.2v13.8h-1.2L174.8,284.3
		L174.8,284.3z M168.4,281.5c0,0.5,0.1,0.9,0.2,1.3c0.1,0.4,0.4,0.8,0.6,1.1c0.3,0.3,0.6,0.6,1,0.7c0.4,0.2,0.9,0.3,1.4,0.3
		c0.5,0,0.9-0.1,1.3-0.3c0.4-0.2,0.8-0.4,1-0.7c0.3-0.3,0.5-0.7,0.7-1.1c0.2-0.4,0.2-0.9,0.2-1.4c0-0.5-0.1-0.9-0.2-1.4
		c-0.2-0.4-0.4-0.8-0.7-1.1c-0.3-0.3-0.6-0.6-1-0.7c-0.4-0.2-0.8-0.3-1.3-0.3c-0.5,0-1,0.1-1.4,0.3c-0.4,0.2-0.7,0.4-1,0.7
		c-0.3,0.3-0.5,0.7-0.6,1.1C168.5,280.6,168.4,281,168.4,281.5z"/>
	<path fill="#FFFFFF" d="M187.2,281.2c0,0.1,0,0.2,0,0.3c0,0.1,0,0.2,0,0.3h-7.1c0,0.4,0.1,0.8,0.3,1.2c0.2,0.4,0.4,0.7,0.7,1
		c0.3,0.3,0.6,0.5,1,0.7c0.4,0.2,0.8,0.2,1.2,0.2c0.6,0,1.2-0.1,1.7-0.4c0.5-0.3,0.8-0.6,1.1-1l0.9,0.7c-0.5,0.6-1.1,1.1-1.7,1.4
		c-0.6,0.3-1.3,0.4-2,0.4c-0.6,0-1.2-0.1-1.8-0.3c-0.5-0.2-1-0.5-1.4-0.9c-0.4-0.4-0.7-0.9-0.9-1.4c-0.2-0.5-0.3-1.1-0.3-1.8
		c0-0.6,0.1-1.2,0.3-1.8c0.2-0.5,0.5-1,0.9-1.4c0.4-0.4,0.8-0.7,1.4-0.9c0.5-0.2,1.1-0.3,1.7-0.3c0.7,0,1.3,0.1,1.8,0.3
		c0.5,0.2,0.9,0.5,1.3,0.9c0.3,0.4,0.6,0.8,0.8,1.3C187.1,280.1,187.2,280.6,187.2,281.2z M185.9,280.8c0-0.8-0.3-1.5-0.8-2
		c-0.5-0.5-1.2-0.8-2.1-0.8c-0.4,0-0.8,0.1-1.2,0.2c-0.4,0.2-0.7,0.4-0.9,0.6c-0.3,0.3-0.5,0.6-0.6,0.9c-0.2,0.3-0.3,0.7-0.3,1.1
		H185.9z"/>
	<path fill="#FFFFFF" d="M193.4,285.8H192l-3.5-8.6h1.4l2.8,7.2h0l2.8-7.2h1.3L193.4,285.8z"/>
	<path fill="#FFFFFF" d="M206.6,281.2c0,0.1,0,0.2,0,0.3c0,0.1,0,0.2,0,0.3h-7.1c0,0.4,0.1,0.8,0.3,1.2c0.2,0.4,0.4,0.7,0.7,1
		c0.3,0.3,0.6,0.5,1,0.7c0.4,0.2,0.8,0.2,1.2,0.2c0.6,0,1.2-0.1,1.7-0.4c0.5-0.3,0.8-0.6,1.1-1l0.9,0.7c-0.5,0.6-1.1,1.1-1.7,1.4
		c-0.6,0.3-1.3,0.4-2,0.4c-0.6,0-1.2-0.1-1.8-0.3c-0.5-0.2-1-0.5-1.4-0.9c-0.4-0.4-0.7-0.9-0.9-1.4c-0.2-0.5-0.3-1.1-0.3-1.8
		c0-0.6,0.1-1.2,0.3-1.8c0.2-0.5,0.5-1,0.9-1.4c0.4-0.4,0.8-0.7,1.4-0.9c0.5-0.2,1.1-0.3,1.7-0.3c0.7,0,1.3,0.1,1.8,0.3
		c0.5,0.2,0.9,0.5,1.3,0.9c0.3,0.4,0.6,0.8,0.8,1.3C206.5,280.1,206.6,280.6,206.6,281.2z M205.3,280.8c0-0.8-0.3-1.5-0.8-2
		c-0.5-0.5-1.2-0.8-2.1-0.8c-0.4,0-0.8,0.1-1.2,0.2c-0.4,0.2-0.7,0.4-0.9,0.6c-0.3,0.3-0.5,0.6-0.6,0.9c-0.2,0.3-0.2,0.7-0.3,1.1
		H205.3z"/>
	<path fill="#FFFFFF" d="M210.5,285.8h-1.2v-13.8h1.2V285.8z"/>
	<path fill="#FFFFFF" d="M222.4,281.5c0,0.6-0.1,1.2-0.3,1.8c-0.2,0.5-0.5,1-0.9,1.4c-0.4,0.4-0.9,0.7-1.4,0.9
		c-0.6,0.2-1.2,0.3-1.8,0.3c-0.7,0-1.3-0.1-1.8-0.3c-0.6-0.2-1-0.5-1.4-0.9c-0.4-0.4-0.7-0.9-0.9-1.4c-0.2-0.5-0.3-1.1-0.3-1.8
		c0-0.6,0.1-1.2,0.3-1.8c0.2-0.5,0.5-1,0.9-1.4c0.4-0.4,0.9-0.7,1.4-0.9c0.6-0.2,1.2-0.3,1.8-0.3c0.7,0,1.3,0.1,1.8,0.3
		c0.6,0.2,1,0.5,1.4,0.9c0.4,0.4,0.7,0.9,0.9,1.4C222.2,280.2,222.4,280.8,222.4,281.5z M221,281.5c0-0.5-0.1-0.9-0.2-1.3
		c-0.2-0.4-0.4-0.8-0.6-1.1c-0.3-0.3-0.6-0.6-1-0.7c-0.4-0.2-0.9-0.3-1.4-0.3c-0.5,0-0.9,0.1-1.3,0.3c-0.4,0.2-0.7,0.4-1,0.7
		c-0.3,0.3-0.5,0.7-0.7,1.1c-0.2,0.4-0.2,0.9-0.2,1.3c0,0.5,0.1,0.9,0.2,1.3c0.2,0.4,0.4,0.8,0.7,1.1c0.3,0.3,0.6,0.6,1,0.7
		c0.4,0.2,0.8,0.3,1.3,0.3c0.5,0,1-0.1,1.4-0.3c0.4-0.2,0.7-0.4,1-0.7c0.3-0.3,0.5-0.7,0.6-1.1C221,282.4,221,282,221,281.5z"/>
	<path fill="#FFFFFF" d="M226.3,290.1H225v-13h1.2v1.5h0.1c0.4-0.6,0.8-1,1.4-1.3c0.6-0.3,1.2-0.4,1.8-0.4c0.7,0,1.3,0.1,1.8,0.3
		c0.5,0.2,1,0.5,1.4,1c0.4,0.4,0.7,0.9,0.9,1.4c0.2,0.5,0.3,1.1,0.3,1.8c0,0.6-0.1,1.2-0.3,1.8c-0.2,0.5-0.5,1-0.9,1.4
		c-0.4,0.4-0.8,0.7-1.4,1c-0.5,0.2-1.2,0.3-1.8,0.3c-0.6,0-1.2-0.1-1.8-0.4c-0.6-0.3-1.1-0.7-1.4-1.2h-0.1V290.1z M232.7,281.5
		c0-0.5-0.1-0.9-0.2-1.3c-0.1-0.4-0.4-0.8-0.6-1.1c-0.3-0.3-0.6-0.6-1-0.7c-0.4-0.2-0.9-0.3-1.4-0.3c-0.5,0-0.9,0.1-1.3,0.3
		c-0.4,0.2-0.8,0.4-1,0.7c-0.3,0.3-0.5,0.7-0.7,1.1c-0.2,0.4-0.2,0.9-0.2,1.4c0,0.5,0.1,0.9,0.2,1.4c0.2,0.4,0.4,0.8,0.7,1.1
		c0.3,0.3,0.6,0.5,1,0.7c0.4,0.2,0.8,0.3,1.3,0.3c0.5,0,1-0.1,1.4-0.3c0.4-0.2,0.7-0.4,1-0.7c0.3-0.3,0.5-0.7,0.6-1.1
		C232.6,282.4,232.7,282,232.7,281.5z"/>
	<path fill="#FFFFFF" d="M239,277.4c0.5-0.3,1.1-0.5,1.7-0.5c0.2,0,0.5,0,0.7,0.1c0.2,0,0.5,0.1,0.7,0.3c0.2,0.1,0.5,0.3,0.7,0.6
		c0.2,0.2,0.4,0.5,0.5,0.9c0.3-0.6,0.7-1,1.2-1.3c0.5-0.3,1.1-0.5,1.8-0.5c1.1,0,1.9,0.3,2.4,1c0.5,0.6,0.8,1.5,0.8,2.6v5.3h-1.2
		V281c0-0.9-0.2-1.6-0.5-2.2c-0.3-0.5-0.9-0.8-1.7-0.8c-0.5,0-0.8,0.1-1.1,0.3c-0.3,0.2-0.6,0.4-0.8,0.7c-0.2,0.3-0.3,0.6-0.4,1
		c-0.1,0.4-0.1,0.8-0.1,1.2v4.6h-1.2v-5c0-0.4,0-0.8-0.1-1.1c-0.1-0.3-0.2-0.6-0.3-0.9c-0.2-0.2-0.4-0.4-0.6-0.5
		c-0.3-0.1-0.6-0.2-1-0.2c-0.3,0-0.6,0.1-0.9,0.2c-0.3,0.1-0.6,0.3-0.8,0.6c-0.2,0.3-0.4,0.6-0.6,1s-0.2,0.9-0.2,1.5v4.4h-1.2v-6.7
		c0-0.2,0-0.5,0-0.9c0-0.4,0-0.7-0.1-1h1.2c0,0.2,0,0.5,0.1,0.8c0,0.3,0,0.5,0,0.7h0C238.1,278.2,238.5,277.8,239,277.4z"/>
	<path fill="#FFFFFF" d="M260.6,281.2c0,0.1,0,0.2,0,0.3c0,0.1,0,0.2,0,0.3h-7.1c0,0.4,0.1,0.8,0.3,1.2c0.2,0.4,0.4,0.7,0.7,1
		c0.3,0.3,0.6,0.5,1,0.7c0.4,0.2,0.8,0.2,1.2,0.2c0.6,0,1.2-0.1,1.7-0.4c0.5-0.3,0.8-0.6,1.1-1l0.9,0.7c-0.5,0.6-1.1,1.1-1.7,1.4
		c-0.6,0.3-1.3,0.4-2,0.4c-0.6,0-1.2-0.1-1.8-0.3c-0.5-0.2-1-0.5-1.4-0.9c-0.4-0.4-0.7-0.9-0.9-1.4c-0.2-0.5-0.3-1.1-0.3-1.8
		c0-0.6,0.1-1.2,0.3-1.8c0.2-0.5,0.5-1,0.9-1.4c0.4-0.4,0.8-0.7,1.4-0.9c0.5-0.2,1.1-0.3,1.7-0.3c0.7,0,1.3,0.1,1.8,0.3
		c0.5,0.2,0.9,0.5,1.3,0.9c0.3,0.4,0.6,0.8,0.8,1.3C260.5,280.1,260.6,280.6,260.6,281.2z M259.3,280.8c0-0.8-0.3-1.5-0.8-2
		c-0.5-0.5-1.2-0.8-2.1-0.8c-0.4,0-0.8,0.1-1.2,0.2c-0.4,0.2-0.7,0.4-0.9,0.6c-0.3,0.3-0.5,0.6-0.6,0.9c-0.2,0.3-0.2,0.7-0.3,1.1
		H259.3z"/>
	<path fill="#FFFFFF" d="M264.4,277.2c0,0.2,0,0.5,0.1,0.8c0,0.3,0,0.5,0,0.7h0c0.2-0.5,0.6-0.9,1.2-1.2c0.5-0.3,1.1-0.5,1.7-0.5
		c1.1,0,1.9,0.3,2.4,1c0.5,0.6,0.8,1.5,0.8,2.6v5.3h-1.2V281c0-0.5,0-0.9-0.1-1.2c-0.1-0.4-0.2-0.7-0.4-0.9
		c-0.2-0.3-0.4-0.5-0.7-0.6c-0.3-0.1-0.7-0.2-1.1-0.2c-0.3,0-0.6,0.1-1,0.2c-0.3,0.1-0.6,0.3-0.8,0.6c-0.2,0.3-0.4,0.6-0.6,1
		c-0.1,0.4-0.2,0.9-0.2,1.5v4.4h-1.2v-6.7c0-0.2,0-0.5,0-0.9c0-0.4,0-0.7-0.1-1H264.4z"/>
	<path fill="#FFFFFF" d="M277.8,278.2h-2.4v5c0,0.3,0,0.6,0.1,0.8c0.1,0.2,0.2,0.4,0.3,0.5c0.1,0.1,0.3,0.2,0.4,0.2
		c0.2,0,0.3,0.1,0.5,0.1c0.2,0,0.4,0,0.5-0.1c0.2,0,0.4-0.1,0.5-0.2l0.1,1.1c-0.2,0.1-0.4,0.1-0.7,0.2c-0.2,0-0.5,0.1-0.8,0.1
		c-0.2,0-0.5,0-0.7-0.1c-0.3-0.1-0.5-0.2-0.7-0.3c-0.2-0.2-0.4-0.4-0.5-0.7c-0.1-0.3-0.2-0.7-0.2-1.2v-5.3h-1.8v-1h1.8v-2.4h1.2v2.4
		h2.4V278.2z"/>
</g>
<rect x="0" y="300.2" fill="#FFFFFF" width="329.3" height="3.3"/>
<rect x="0" y="209.2" fill="#FFFFFF" width="329.3" height="3.3"/>
</svg>
